<svg xmlns="http://www.w3.org/2000/svg" viewBox="0 0 700 180" font-family="'Segoe UI', Arial, sans-serif">
  <defs>
    <linearGradient id="bg5" x1="0" y1="0" x2="0" y2="1">
      <stop offset="0%" stop-color="#0a0e17"/>
      <stop offset="100%" stop-color="#111827"/>
    </linearGradient>
  </defs>

  <rect width="700" height="180" fill="url(#bg5)" rx="16"/>

  <text x="30" y="30" fill="#6b7280" font-size="12" font-weight="600" letter-spacing="1">APPS EM EXECUCAO - ICONES REAIS</text>
  <rect x="30" y="16" width="4" height="20" rx="2" fill="#69f0ae"/>
  <text x="640" y="30" fill="#00d4ff" font-size="11">Ver todos</text>

  <!-- App 1: Chrome -->
  <rect x="30" y="50" width="120" height="115" rx="14" fill="#111827" stroke="#1e293b" stroke-width="1"/>
  <rect x="60" y="62" width="60" height="60" rx="14" fill="#1e293b"/>
  <!-- Chrome-like icon -->
  <circle cx="90" cy="92" r="22" fill="#4285f4"/>
  <circle cx="90" cy="92" r="10" fill="white"/>
  <circle cx="90" cy="92" r="8" fill="#4285f4"/>
  <path d="M90 70 L100 88" stroke="#ea4335" stroke-width="5" fill="none"/>
  <path d="M70 100 L88 88" stroke="#34a853" stroke-width="5" fill="none"/>
  <path d="M110 100 L92 88" stroke="#fbbc05" stroke-width="5" fill="none"/>
  <text x="90" y="138" fill="#e8e8e8" font-size="11" text-anchor="middle" font-weight="500">Chrome</text>
  <text x="90" y="152" fill="#69f0ae" font-size="9" text-anchor="middle">CPU 3.2%</text>
  <rect x="50" y="158" width="80" height="3" rx="1.5" fill="#1e293b"/>
  <rect x="50" y="158" width="15" height="3" rx="1.5" fill="#69f0ae"/>

  <!-- App 2: VS Code -->
  <rect x="160" y="50" width="120" height="115" rx="14" fill="#111827" stroke="#1e293b" stroke-width="1"/>
  <rect x="190" y="62" width="60" height="60" rx="14" fill="#1e293b"/>
  <rect x="200" y="72" width="40" height="40" rx="6" fill="#007acc"/>
  <text x="220" y="98" fill="white" font-size="18" text-anchor="middle" font-weight="700">VS</text>
  <text x="220" y="138" fill="#e8e8e8" font-size="11" text-anchor="middle" font-weight="500">VS Code</text>
  <text x="220" y="152" fill="#69f0ae" font-size="9" text-anchor="middle">CPU 1.8%</text>
  <rect x="180" y="158" width="80" height="3" rx="1.5" fill="#1e293b"/>
  <rect x="180" y="158" width="8" height="3" rx="1.5" fill="#69f0ae"/>

  <!-- App 3: Electron -->
  <rect x="290" y="50" width="120" height="115" rx="14" fill="#111827" stroke="#1e293b" stroke-width="1"/>
  <rect x="320" y="62" width="60" height="60" rx="14" fill="#1e293b"/>
  <circle cx="350" cy="92" r="18" fill="none" stroke="#47848f" stroke-width="2"/>
  <ellipse cx="350" cy="92" rx="18" ry="7" fill="none" stroke="#47848f" stroke-width="2" transform="rotate(60 350 92)"/>
  <ellipse cx="350" cy="92" rx="18" ry="7" fill="none" stroke="#47848f" stroke-width="2" transform="rotate(-60 350 92)"/>
  <circle cx="350" cy="92" r="4" fill="#47848f"/>
  <text x="350" y="138" fill="#e8e8e8" font-size="11" text-anchor="middle" font-weight="500">Electron</text>
  <text x="350" y="152" fill="#ffb74d" font-size="9" text-anchor="middle">CPU 8.5%</text>
  <rect x="310" y="158" width="80" height="3" rx="1.5" fill="#1e293b"/>
  <rect x="310" y="158" width="36" height="3" rx="1.5" fill="#ffb74d"/>

  <!-- App 4: Steam -->
  <rect x="420" y="50" width="120" height="115" rx="14" fill="#111827" stroke="#1e293b" stroke-width="1"/>
  <rect x="450" y="62" width="60" height="60" rx="14" fill="#1e293b"/>
  <circle cx="480" cy="92" r="18" fill="#171a21"/>
  <circle cx="480" cy="92" r="14" fill="none" stroke="#c7d5e0" stroke-width="2"/>
  <circle cx="480" cy="86" r="3" fill="#c7d5e0"/>
  <text x="480" y="138" fill="#e8e8e8" font-size="11" text-anchor="middle" font-weight="500">Steam</text>
  <text x="480" y="152" fill="#69f0ae" font-size="9" text-anchor="middle">CPU 0.5%</text>
  <rect x="440" y="158" width="80" height="3" rx="1.5" fill="#1e293b"/>
  <rect x="440" y="158" width="4" height="3" rx="1.5" fill="#69f0ae"/>

  <!-- App 5: Discord -->
  <rect x="550" y="50" width="120" height="115" rx="14" fill="#111827" stroke="#1e293b" stroke-width="1"/>
  <rect x="580" y="62" width="60" height="60" rx="14" fill="#1e293b"/>
  <rect x="590" y="72" width="40" height="40" rx="8" fill="#5865f2"/>
  <circle cx="604" cy="92" r="4" fill="white"/>
  <circle cx="616" cy="92" r="4" fill="white"/>
  <text x="610" y="138" fill="#e8e8e8" font-size="11" text-anchor="middle" font-weight="500">Discord</text>
  <text x="610" y="152" fill="#69f0ae" font-size="9" text-anchor="middle">CPU 1.1%</text>
  <rect x="570" y="158" width="80" height="3" rx="1.5" fill="#1e293b"/>
  <rect x="570" y="158" width="7" height="3" rx="1.5" fill="#69f0ae"/>

  <!-- Annotation -->
  <rect x="30" y="48" width="10" height="10" rx="2" fill="#69f0ae" opacity="0.5"/>
  <text x="545" y="46" fill="#69f0ae" font-size="9" opacity="0.7">Icones extraidos via app.getFileIcon()</text>
</svg>
