<svg xmlns="http://www.w3.org/2000/svg" viewBox="0 0 1200 700" font-family="'Segoe UI', Arial, sans-serif">
  <defs>
    <linearGradient id="bg" x1="0" y1="0" x2="0" y2="1">
      <stop offset="0%" stop-color="#0a0e17"/>
      <stop offset="100%" stop-color="#111827"/>
    </linearGradient>
    <linearGradient id="accent" x1="0" y1="0" x2="1" y2="1">
      <stop offset="0%" stop-color="#00d4ff"/>
      <stop offset="100%" stop-color="#0066ff"/>
    </linearGradient>
    <linearGradient id="green" x1="0" y1="0" x2="1" y2="0">
      <stop offset="0%" stop-color="#00c853"/>
      <stop offset="100%" stop-color="#69f0ae"/>
    </linearGradient>
    <linearGradient id="purple" x1="0" y1="0" x2="1" y2="0">
      <stop offset="0%" stop-color="#7b68ee"/>
      <stop offset="100%" stop-color="#9370db"/>
    </linearGradient>
    <linearGradient id="orange" x1="0" y1="0" x2="1" y2="0">
      <stop offset="0%" stop-color="#ff6b35"/>
      <stop offset="100%" stop-color="#f7931e"/>
    </linearGradient>
  </defs>

  <!-- Background -->
  <rect width="1200" height="700" fill="url(#bg)"/>

  <!-- Header -->
  <rect x="0" y="0" width="1200" height="56" fill="#0d1117" opacity="0.9"/>
  <circle cx="32" cy="28" r="14" fill="url(#accent)"/>
  <text x="54" y="34" fill="white" font-size="18" font-weight="700">FixMe</text>
  <circle cx="1160" cy="28" r="16" fill="#1e293b" stroke="#334155" stroke-width="1"/>
  <text x="1153" y="33" fill="#94a3b8" font-size="11" font-weight="600">LS</text>

  <!-- Status Banner -->
  <rect x="24" y="72" width="830" height="64" rx="14" fill="#0d1f12" stroke="#1a3a1a" stroke-width="1"/>
  <circle cx="56" cy="104" r="12" fill="none" stroke="#00c853" stroke-width="2.5"/>
  <circle cx="56" cy="104" r="5" fill="#00c853"/>
  <text x="78" y="100" fill="#e8e8e8" font-size="15" font-weight="600">Sistema saudavel</text>
  <text x="78" y="118" fill="#6b7280" font-size="11">Ultimo scan: 14:25:52</text>
  <rect x="730" y="88" width="100" height="32" rx="8" fill="url(#accent)"/>
  <text x="762" y="109" fill="white" font-size="12" font-weight="600">Scan</text>

  <!-- Hardware Cards -->
  <!-- CPU Card -->
  <rect x="24" y="152" width="270" height="150" rx="14" fill="#111827" stroke="#1e293b" stroke-width="1"/>
  <circle cx="80" cy="220" r="40" fill="none" stroke="#1e293b" stroke-width="5"/>
  <circle cx="80" cy="220" r="40" fill="none" stroke="#00d4ff" stroke-width="5" stroke-dasharray="200" stroke-dashoffset="60" stroke-linecap="round" transform="rotate(-90 80 220)"/>
  <text x="80" y="225" fill="white" font-size="20" font-weight="700" text-anchor="middle">42%</text>
  <text x="140" y="200" fill="#e8e8e8" font-size="13" font-weight="600">CPU</text>
  <text x="140" y="218" fill="#6b7280" font-size="10">Intel Core i7-10700</text>
  <text x="140" y="236" fill="#6b7280" font-size="10">8 cores</text>
  <rect x="140" y="248" width="130" height="4" rx="2" fill="#1e293b"/>
  <rect x="140" y="248" width="55" height="4" rx="2" fill="#00d4ff"/>

  <!-- RAM Card -->
  <rect x="304" y="152" width="270" height="150" rx="14" fill="#111827" stroke="#1e293b" stroke-width="1"/>
  <circle cx="360" cy="220" r="40" fill="none" stroke="#1e293b" stroke-width="5"/>
  <circle cx="360" cy="220" r="40" fill="none" stroke="#a855f7" stroke-width="5" stroke-dasharray="200" stroke-dashoffset="40" stroke-linecap="round" transform="rotate(-90 360 220)"/>
  <text x="360" y="225" fill="white" font-size="20" font-weight="700" text-anchor="middle">68%</text>
  <text x="420" y="200" fill="#e8e8e8" font-size="13" font-weight="600">RAM</text>
  <text x="420" y="218" fill="#6b7280" font-size="10">16 GB DDR4</text>
  <text x="420" y="236" fill="#6b7280" font-size="10">10.9 / 16.0 GB</text>
  <rect x="420" y="248" width="130" height="4" rx="2" fill="#1e293b"/>
  <rect x="420" y="248" width="88" height="4" rx="2" fill="#a855f7"/>

  <!-- GPU Card -->
  <rect x="584" y="152" width="270" height="150" rx="14" fill="#111827" stroke="#1e293b" stroke-width="1"/>
  <circle cx="640" cy="220" r="40" fill="none" stroke="#1e293b" stroke-width="5"/>
  <circle cx="640" cy="220" r="40" fill="none" stroke="#f59e0b" stroke-width="5" stroke-dasharray="200" stroke-dashoffset="150" stroke-linecap="round" transform="rotate(-90 640 220)"/>
  <text x="640" y="225" fill="white" font-size="20" font-weight="700" text-anchor="middle">25%</text>
  <text x="700" y="200" fill="#e8e8e8" font-size="13" font-weight="600">GPU</text>
  <text x="700" y="218" fill="#6b7280" font-size="10">NVIDIA RTX 3060</text>
  <text x="700" y="236" fill="#6b7280" font-size="10">6 GB VRAM</text>
  <rect x="700" y="248" width="130" height="4" rx="2" fill="#1e293b"/>
  <rect x="700" y="248" width="32" height="4" rx="2" fill="#f59e0b"/>

  <!-- Apps Section -->
  <text x="24" y="332" fill="#e8e8e8" font-size="13" font-weight="600">Apps recentes</text>
  <text x="790" y="332" fill="#00d4ff" font-size="11">Ver todos</text>

  <!-- App Cards Row -->
  <rect x="24" y="346" width="100" height="90" rx="12" fill="#111827" stroke="#1e293b" stroke-width="1"/>
  <rect x="52" y="358" width="44" height="44" rx="10" fill="#1e293b"/>
  <rect x="60" y="366" width="28" height="28" rx="4" fill="#4285f4" opacity="0.8"/>
  <text x="74" y="418" fill="#e8e8e8" font-size="10" text-anchor="middle" font-weight="500">Chrome</text>
  <text x="74" y="430" fill="#69f0ae" font-size="9" text-anchor="middle">CPU 3.2%</text>

  <rect x="134" y="346" width="100" height="90" rx="12" fill="#111827" stroke="#1e293b" stroke-width="1"/>
  <rect x="162" y="358" width="44" height="44" rx="10" fill="#1e293b"/>
  <rect x="170" y="366" width="28" height="28" rx="4" fill="#007acc" opacity="0.8"/>
  <text x="184" y="418" fill="#e8e8e8" font-size="10" text-anchor="middle" font-weight="500">VS Code</text>
  <text x="184" y="430" fill="#69f0ae" font-size="9" text-anchor="middle">CPU 1.8%</text>

  <rect x="244" y="346" width="100" height="90" rx="12" fill="#111827" stroke="#1e293b" stroke-width="1"/>
  <rect x="272" y="358" width="44" height="44" rx="10" fill="#1e293b"/>
  <rect x="280" y="366" width="28" height="28" rx="4" fill="#1db954" opacity="0.8"/>
  <text x="294" y="418" fill="#e8e8e8" font-size="10" text-anchor="middle" font-weight="500">Spotify</text>
  <text x="294" y="430" fill="#69f0ae" font-size="9" text-anchor="middle">CPU 0.8%</text>

  <rect x="354" y="346" width="100" height="90" rx="12" fill="#111827" stroke="#1e293b" stroke-width="1"/>
  <rect x="382" y="358" width="44" height="44" rx="10" fill="#1e293b"/>
  <rect x="390" y="366" width="28" height="28" rx="4" fill="#171a21" opacity="0.8"/>
  <text x="404" y="418" fill="#e8e8e8" font-size="10" text-anchor="middle" font-weight="500">Steam</text>
  <text x="404" y="430" fill="#69f0ae" font-size="9" text-anchor="middle">CPU 0.5%</text>

  <rect x="464" y="346" width="100" height="90" rx="12" fill="#111827" stroke="#1e293b" stroke-width="1"/>
  <rect x="492" y="358" width="44" height="44" rx="10" fill="#1e293b"/>
  <rect x="500" y="366" width="28" height="28" rx="4" fill="#5865f2" opacity="0.8"/>
  <text x="514" y="418" fill="#e8e8e8" font-size="10" text-anchor="middle" font-weight="500">Discord</text>
  <text x="514" y="430" fill="#69f0ae" font-size="9" text-anchor="middle">CPU 1.1%</text>

  <!-- ML Section -->
  <text x="24" y="472" fill="#e8e8e8" font-size="13" font-weight="600">Machine Learning Insights</text>

  <!-- ML Card 1 -->
  <rect x="24" y="486" width="270" height="100" rx="12" fill="#111827" stroke="#1e293b" stroke-width="1"/>
  <circle cx="50" cy="510" r="12" fill="#1a1a3e"/>
  <text x="46" y="515" fill="#a78bfa" font-size="12">ML</text>
  <text x="70" y="514" fill="#e8e8e8" font-size="11" font-weight="600">Predicao ML</text>
  <rect x="40" y="530" width="80" height="18" rx="9" fill="#1a2a1a"/>
  <text x="52" y="543" fill="#69f0ae" font-size="9">Modelo pronto</text>
  <text x="40" y="570" fill="#6b7280" font-size="9">high_performance - 78%</text>

  <!-- ML Card 2 -->
  <rect x="304" y="486" width="270" height="100" rx="12" fill="#111827" stroke="#1e293b" stroke-width="1"/>
  <circle cx="330" cy="510" r="12" fill="#1a1a3e"/>
  <text x="324" y="515" fill="#60a5fa" font-size="12">ST</text>
  <text x="350" y="514" fill="#e8e8e8" font-size="11" font-weight="600">Status do Modelo</text>
  <text x="320" y="545" fill="#6b7280" font-size="10">Amostras:</text>
  <text x="400" y="545" fill="white" font-size="11" font-weight="600">24</text>
  <text x="320" y="565" fill="#6b7280" font-size="10">Efetividade:</text>
  <text x="410" y="565" fill="#69f0ae" font-size="11" font-weight="600">72%</text>

  <!-- ML Card 3 -->
  <rect x="584" y="486" width="270" height="100" rx="12" fill="#111827" stroke="#1e293b" stroke-width="1"/>
  <circle cx="610" cy="510" r="12" fill="#1a2a1a"/>
  <text x="604" y="515" fill="#69f0ae" font-size="12">US</text>
  <text x="630" y="514" fill="#e8e8e8" font-size="11" font-weight="600">Perfil de Uso</text>
  <text x="600" y="542" fill="#6b7280" font-size="9">High Performance</text>
  <rect x="600" y="548" width="230" height="3" rx="1.5" fill="#1e293b"/>
  <rect x="600" y="548" width="70" height="3" rx="1.5" fill="#00d4ff"/>
  <text x="600" y="568" fill="#6b7280" font-size="9">Limpeza de RAM</text>
  <rect x="600" y="574" width="230" height="3" rx="1.5" fill="#1e293b"/>
  <rect x="600" y="574" width="120" height="3" rx="1.5" fill="#a855f7"/>

  <!-- AI Sidebar -->
  <rect x="870" y="72" width="310" height="620" rx="16" fill="#111827" stroke="#1e293b" stroke-width="1"/>
  <circle cx="900" cy="100" r="14" fill="url(#accent)" opacity="0.15"/>
  <text x="896" y="105" fill="#00d4ff" font-size="14">AI</text>
  <text x="924" y="104" fill="#e8e8e8" font-size="14" font-weight="700">Diagnostico IA</text>
  <text x="886" y="124" fill="#6b7280" font-size="10">Diagnostico inteligente</text>

  <!-- AI Steps -->
  <rect x="886" y="144" width="278" height="50" rx="10" fill="#0d1f12" stroke="#1a3a1a" stroke-width="1"/>
  <circle cx="908" cy="169" r="10" fill="#00c853" opacity="0.2"/>
  <text x="905" y="173" fill="#00c853" font-size="10">1</text>
  <text x="926" y="164" fill="#e8e8e8" font-size="11" font-weight="500">Coletando dados</text>
  <text x="926" y="180" fill="#69f0ae" font-size="9">CPU: 42% | RAM: 68% | GPU: 25%</text>

  <rect x="886" y="202" width="278" height="50" rx="10" fill="#0d1f12" stroke="#1a3a1a" stroke-width="1"/>
  <circle cx="908" cy="227" r="10" fill="#00c853" opacity="0.2"/>
  <text x="905" y="231" fill="#00c853" font-size="10">2</text>
  <text x="926" y="222" fill="#e8e8e8" font-size="11" font-weight="500">Analisando processos</text>
  <text x="926" y="238" fill="#69f0ae" font-size="9">3 problemas detectados</text>

  <rect x="886" y="260" width="278" height="50" rx="10" fill="#0d1f12" stroke="#1a3a1a" stroke-width="1"/>
  <circle cx="908" cy="285" r="10" fill="#00c853" opacity="0.2"/>
  <text x="905" y="289" fill="#00c853" font-size="10">3</text>
  <text x="926" y="280" fill="#e8e8e8" font-size="11" font-weight="500">Predicao ML kNN</text>
  <text x="926" y="296" fill="#69f0ae" font-size="9">5 predicoes geradas</text>

  <rect x="886" y="318" width="278" height="50" rx="10" fill="#0d1f12" stroke="#1a3a1a" stroke-width="1"/>
  <circle cx="908" cy="343" r="10" fill="#00c853" opacity="0.2"/>
  <text x="905" y="347" fill="#00c853" font-size="10">4</text>
  <text x="926" y="338" fill="#e8e8e8" font-size="11" font-weight="500">Gemini AI</text>
  <text x="926" y="354" fill="#69f0ae" font-size="9">4 recomendacoes geradas</text>

  <!-- AI Results -->
  <rect x="886" y="386" width="278" height="60" rx="10" fill="#111827" stroke="#334155" stroke-width="1"/>
  <circle cx="906" cy="406" r="8" fill="#ef4444" opacity="0.2"/>
  <text x="903" y="410" fill="#ef4444" font-size="9">!</text>
  <text x="922" y="405" fill="#e8e8e8" font-size="10" font-weight="500">Memoria Alta</text>
  <text x="922" y="420" fill="#6b7280" font-size="8.5">Feche apps desnecessarios</text>
  <rect x="922" y="428" width="50" height="12" rx="6" fill="#ef4444" opacity="0.15"/>
  <text x="930" y="437" fill="#ef4444" font-size="7" font-weight="600">ALTO</text>

  <rect x="886" y="454" width="278" height="60" rx="10" fill="#111827" stroke="#334155" stroke-width="1"/>
  <circle cx="906" cy="474" r="8" fill="#f59e0b" opacity="0.2"/>
  <text x="903" y="478" fill="#f59e0b" font-size="9">i</text>
  <text x="922" y="473" fill="#e8e8e8" font-size="10" font-weight="500">Modo High Performance</text>
  <text x="922" y="488" fill="#6b7280" font-size="8.5">Ative para melhor desempenho</text>
  <rect x="922" y="496" width="50" height="12" rx="6" fill="#f59e0b" opacity="0.15"/>
  <text x="929" y="505" fill="#f59e0b" font-size="7" font-weight="600">MEDIO</text>

  <!-- Confidence Bar -->
  <text x="886" y="545" fill="#6b7280" font-size="10">Confianca da analise</text>
  <rect x="886" y="554" width="278" height="6" rx="3" fill="#1e293b"/>
  <rect x="886" y="554" width="222" height="6" rx="3" fill="url(#accent)"/>
  <text x="1140" y="564" fill="#00d4ff" font-size="11" font-weight="600" text-anchor="end">80%</text>

  <text x="886" y="590" fill="#6b7280" font-size="9">Issues: 3</text>
  <text x="960" y="590" fill="#6b7280" font-size="9">Corrigidos: 1</text>

  <!-- Analyze Button -->
  <rect x="886" y="608" width="278" height="40" rx="10" fill="url(#accent)"/>
  <text x="1025" y="633" fill="white" font-size="13" font-weight="700" text-anchor="middle">Analisar</text>

  <!-- Activity Section -->
  <text x="24" y="612" fill="#e8e8e8" font-size="13" font-weight="600">Correcoes recentes</text>
  <rect x="24" y="626" width="830" height="32" rx="8" fill="#111827" stroke="#1e293b" stroke-width="1"/>
  <circle cx="44" cy="642" r="6" fill="#00c853" opacity="0.3"/>
  <circle cx="44" cy="642" r="3" fill="#00c853"/>
  <text x="58" y="646" fill="#e8e8e8" font-size="10">Cache do Chrome limpo</text>
  <text x="280" y="646" fill="#6b7280" font-size="9">2 min atras - Liberados 245 MB</text>

  <rect x="24" y="664" width="830" height="32" rx="8" fill="#111827" stroke="#1e293b" stroke-width="1"/>
  <circle cx="44" cy="680" r="6" fill="#00c853" opacity="0.3"/>
  <circle cx="44" cy="680" r="3" fill="#00c853"/>
  <text x="58" y="684" fill="#e8e8e8" font-size="10">RAM Standby limpa</text>
  <text x="280" y="684" fill="#6b7280" font-size="9">15 min atras - Recuperados 1.2 GB</text>

  <!-- Live Badge -->
  <rect x="24" y="140" width="60" height="18" rx="9" fill="#00c853" opacity="0.15"/>
  <circle cx="36" cy="149" r="3" fill="#00c853"/>
  <text x="44" y="153" fill="#69f0ae" font-size="8" font-weight="600">LIVE</text>
</svg>
